<?xml version="1.0" standalone="no"?><!DOCTYPE svg PUBLIC "-//W3C//DTD SVG 1.1//EN" "http://www.w3.org/Graphics/SVG/1.1/DTD/svg11.dtd"><svg t="1481716301591" class="icon" style="" viewBox="0 0 1402 1024" version="1.1" xmlns="http://www.w3.org/2000/svg" p-id="2808" xmlns:xlink="http://www.w3.org/1999/xlink" width="273.828125" height="200"><defs><style type="text/css"></style></defs><path d="M682.630311 472.259913 443.347855 382.737095 719.377742 271.349325C726.468419 268.505841 732.08181 262.854943 734.851713 255.72676 737.474468 248.967899 749.699573 213.882409 732.562211 186.95949 725.951946 176.618505 712.803544 163.914441 687.320398 162.214988 683.295378 161.992818 679.048187 162.584309 675.243892 164.135168L284.909173 319.692858C283.136144 320.357924 266.036296 327.263937 246.092966 345.471748 247.312014 333.875647 241.107133 322.722444 230.581487 317.625526L119.193715 263.851821 682.556734 57.808248 1242.927681 263.446433 682.630311 472.259913ZM179.098725 531.055517C179.283386 540.067813 184.231709 548.671838 191.618128 553.732689 191.729213 553.806266 202.328435 561.155174 203.694634 572.383394 205.171918 584.902796 195.015592 599.159161 186.15189 608.90866 180.464924 615.224622 177.953253 623.828647 179.393028 632.213385 190.80591 698.210751 200.962236 871.458336 121.04032 916.146171L70.222625 883.351622C103.203273 843.943925 160.742321 760.995306 178.39615 646.357224 179.984518 636.016241 175.590176 625.639187 167.058286 619.54539 156.606214 612.158971 136.5518 591.846319 137.401526 578.477191 138.029083 568.726253 152.507618 559.566805 161.111641 554.9878 170.45575 550.039482 176.144158 540.177457 175.774837 529.578234 173.706063 470.486884 187.666683 379.375698 224.007285 369.735844 199.632104 401.977851 177.583932 452.870564 179.098725 531.055517L179.098725 531.055517ZM1332.376921 237.298222 692.159078 2.336532C685.954199 0.045588 679.195341 0.045588 673.065477 2.336532L38.681751 234.343655C28.231123 238.184016 21.065431 247.897445 20.548959 258.977073 20.031044 270.056701 26.12484 280.471263 36.171523 285.272435L163.956567 346.949031C125.91651 394.111026 120.634933 478.131539 120.228102 515.063632 90.978173 535.302708 83.148858 558.274183 82.114471 574.931133 79.898545 609.31549 104.420878 637.937863 120.966744 653.189664 95.336449 785.148319 9.505398 867.840146 8.657114 868.688427 2.4883 874.523988-0.686995 882.907287 0.125223 891.365597 0.901374 899.822473 5.517886 907.467124 12.682135 912.083639L103.719745 970.805668C108.225172 973.724165 113.469241 975.237519 118.714752 975.237519 121.890047 975.237519 125.10285 974.683535 128.168502 973.575572 266.405617 923.385436 244.024192 693.520664 236.010216 635.61085 254.180517 611.974311 261.789106 588.079535 258.538793 564.516573 255.584225 542.726634 243.950616 527.104072 234.532932 517.686388 236.675282 401.312785 302.3769 372.396109 305.184316 371.250637L686.138858 219.422224C686.212436 221.048101 686.065287 223.041857 685.732029 225.184207L356.557435 357.992593C345.95677 362.27585 339.050757 372.616836 339.199351 384.029719 339.346502 395.441158 346.474685 405.597484 357.184992 409.622505L672.880818 527.731629C679.159274 530.058639 686.027776 530.058639 692.232655 527.731629L1332.450498 289.22388C1343.307954 285.198859 1350.509714 274.784297 1350.473647 263.186755 1350.436136 251.590654 1343.234382 241.287177 1332.376921 237.298222L1332.376921 237.298222Z" p-id="2809" fill="#2c2c2c"></path><path d="M1068.976942 685.443498C1062.587403 696.338464 1023.070062 748.11697 833.866655 786.895673 832.389373 787.117843 502.327542 838.785261 344.812164 706.199045 354.672744 686.366801 365.42056 655.381353 359.142104 622.289618 354.488083 597.803353 340.971803 576.235585 319.735849 559.209316L319.735849 523.754505 688.538872 646.702312C694.227278 648.62249 700.394647 648.62249 706.192697 646.664801L1069.014453 523.939165 1069.014453 685.443498 1068.976942 685.443498ZM1112.778984 462.854059C1105.502208 457.60999 1096.233116 456.242349 1087.812312 459.087274L697.181847 591.229149 300.751887 459.049765C292.36859 456.242349 283.024483 457.60999 275.786658 462.854059 268.5849 468.060619 264.264133 476.407849 264.264133 485.309061L264.264133 573.42817C264.264133 582.919432 269.138881 591.783133 277.190366 596.843983 292.922572 606.815647 301.897359 618.411746 304.59369 632.408436 309.43093 657.227954 293.625147 686.182141 287.198098 695.119419 279.146612 706.125468 280.292085 721.341203 289.931938 731.017124 389.906827 831.362776 560.12627 852.414071 685.326067 852.414071 774.074174 852.414071 839.813303 842.035577 843.72868 841.408016 1092.871718 790.40422 1120.719382 711.627776 1123.783594 696.338464 1124.152913 694.565435 1124.337572 692.718835 1124.337572 690.909739L1124.337572 485.345127C1124.337572 476.407849 1120.054315 468.024552 1112.778984 462.854059L1112.778984 462.854059Z" p-id="2810" fill="#2c2c2c"></path></svg>