<svg t="1481715589788" class="icon" style="" viewBox="0 0 1024 1024" version="1.1" xmlns="http://www.w3.org/2000/svg" p-id="1842" xmlns:xlink="http://www.w3.org/1999/xlink" width="200" height="200"><defs><style type="text/css"></style></defs><path d="M136.288 750.944c-75.2 0-136.288 61.344-136.288 136.064 0 75.168 61.088 135.808 136.288 135.808 75.456 0 136.48-60.64 136.48-135.808 0-74.752-61.024-136.064-136.48-136.064zM0.16 347.936l0 196.256c127.776 0 247.968 49.984 338.464 140.512 90.4 90.304 140.288 211.04 140.288 339.296l197.12 0c0-372.832-303.296-676.064-675.872-676.064zM0.384 0l0 196.352c455.776 0 826.752 371.328 826.752 827.648l196.864 0c0-564.48-459.264-1024-1023.616-1024z" p-id="1843" fill="#2c2c2c"></path></svg>
